<svg xmlns="http://www.w3.org/2000/svg" width="64" height="64" viewBox="0 0 64 64">
  <!-- Carta de Smith dibujada con sus ecuaciones (tools/marca_carta_smith.py): r = 0.5, 1, 2; x = ±0.5, ±1, ±2. El punto azul es el centro, z = 1: la adaptación. -->
  <style>.tinta { stroke: #101418; } @media (prefers-color-scheme: dark) { .tinta { stroke: #E8ECEF; } }</style>
  <g class="tinta" fill="none" stroke-linecap="round" stroke-linejoin="round"><g stroke-width="2.6"><circle cx="40.667" cy="32" r="17.333"/><circle cx="45" cy="32" r="13"/><circle cx="49.333" cy="32" r="8.667"/><path d="M58,32 A52,52 0 0 1 16.4,11.2"/><path d="M58,32 A52,52 0 0 0 16.4,52.8"/><path d="M58,32 A26,26 0 0 1 32,6"/><path d="M58,32 A26,26 0 0 0 32,58"/><path d="M58,32 A13,13 0 0 1 47.6,11.2"/><path d="M58,32 A13,13 0 0 0 47.6,52.8"/><path d="M6,32 L58,32"/></g><circle cx="32" cy="32" r="26" stroke-width="5"/></g><circle cx="32" cy="32" r="6" fill="#0B6E99"/>
</svg>
